<svg width="23" height="22" viewBox="0 0 23 22" fill="none" xmlns="http://www.w3.org/2000/svg">
<path fill-rule="evenodd" clip-rule="evenodd" d="M11.75 1.375C12.1297 1.375 12.4375 1.6828 12.4375 2.0625L12.4375 19.9375C12.4375 20.3172 12.1297 20.625 11.75 20.625C11.3703 20.625 11.0625 20.3172 11.0625 19.9375L11.0625 2.0625C11.0625 1.6828 11.3703 1.375 11.75 1.375Z" fill="white"/>
<path fill-rule="evenodd" clip-rule="evenodd" d="M7.11443 4.64568C7.88802 3.8721 8.93723 3.4375 10.0312 3.4375L13.125 3.4375C13.6667 3.4375 14.2031 3.5442 14.7036 3.7515C15.204 3.9588 15.6588 4.26264 16.0418 4.64568C16.4249 5.02873 16.7287 5.48346 16.936 5.98393C17.1433 6.4844 17.25 7.0208 17.25 7.5625C17.25 7.9422 16.9422 8.25 16.5625 8.25C16.1828 8.25 15.875 7.9422 15.875 7.5625C15.875 7.20136 15.8039 6.84377 15.6657 6.51012C15.5275 6.17648 15.3249 5.87332 15.0695 5.61796C14.8142 5.3626 14.511 5.16003 14.1774 5.02183C13.8437 4.88363 13.4861 4.8125 13.125 4.8125L10.0313 4.8125C9.3019 4.8125 8.60243 5.10223 8.08671 5.61796C7.57098 6.13368 7.28125 6.83315 7.28125 7.5625C7.28125 8.29185 7.57098 8.99132 8.08671 9.50704C8.60243 10.0228 9.3019 10.3125 10.0313 10.3125H13.8125C14.9065 10.3125 15.9557 10.7471 16.7293 11.5207C17.5029 12.2943 17.9375 13.3435 17.9375 14.4375C17.9375 15.5315 17.5029 16.5807 16.7293 17.3543C15.9557 18.1279 14.9065 18.5625 13.8125 18.5625H9.6875C8.59348 18.5625 7.54427 18.1279 6.77068 17.3543C5.9971 16.5807 5.5625 15.5315 5.5625 14.4375C5.5625 14.0578 5.8703 13.75 6.25 13.75C6.6297 13.75 6.9375 14.0578 6.9375 14.4375C6.9375 15.1668 7.22723 15.8663 7.74296 16.382C8.25868 16.8978 8.95815 17.1875 9.6875 17.1875H13.8125C14.5418 17.1875 15.2413 16.8978 15.757 16.382C16.2728 15.8663 16.5625 15.1668 16.5625 14.4375C16.5625 13.7082 16.2728 13.0087 15.757 12.493C15.2413 11.9772 14.5418 11.6875 13.8125 11.6875L10.0313 11.6875C8.93723 11.6875 7.88802 11.2529 7.11443 10.4793C6.34085 9.70573 5.90625 8.65652 5.90625 7.5625C5.90625 6.46848 6.34085 5.41927 7.11443 4.64568Z" fill="white"/>
</svg>
