<svg width="23" height="22" viewBox="0 0 23 22" fill="none" xmlns="http://www.w3.org/2000/svg">
<path fill-rule="evenodd" clip-rule="evenodd" d="M11.25 3.4375C7.07335 3.4375 3.6875 6.82335 3.6875 11C3.6875 15.1767 7.07335 18.5625 11.25 18.5625C15.4267 18.5625 18.8125 15.1767 18.8125 11C18.8125 6.82335 15.4267 3.4375 11.25 3.4375ZM2.3125 11C2.3125 6.06396 6.31396 2.0625 11.25 2.0625C16.186 2.0625 20.1875 6.06396 20.1875 11C20.1875 15.936 16.186 19.9375 11.25 19.9375C6.31396 19.9375 2.3125 15.936 2.3125 11Z" fill="#14AE5C"/>
<path fill-rule="evenodd" clip-rule="evenodd" d="M11.2502 6.875C11.4325 6.875 11.6074 6.94743 11.7363 7.07636L14.6496 9.98965C14.9181 10.2581 14.9181 10.6934 14.6496 10.9619C14.3811 11.2304 13.9458 11.2304 13.6773 10.9619L11.2502 8.53477L8.82305 10.9619C8.55456 11.2304 8.11926 11.2304 7.85078 10.9619C7.58229 10.6934 7.58229 10.2581 7.85078 9.98965L10.7641 7.07636C10.893 6.94743 11.0679 6.875 11.2502 6.875Z" fill="#14AE5C"/>
<path fill-rule="evenodd" clip-rule="evenodd" d="M11.25 6.875C11.6297 6.875 11.9375 7.1828 11.9375 7.5625L11.9375 14.4375C11.9375 14.8172 11.6297 15.125 11.25 15.125C10.8703 15.125 10.5625 14.8172 10.5625 14.4375L10.5625 7.5625C10.5625 7.1828 10.8703 6.875 11.25 6.875Z" fill="#14AE5C"/>
</svg>
