<svg width="203" height="77" viewBox="0 0 203 77" fill="none" xmlns="http://www.w3.org/2000/svg">
<path d="M20.132 28.448C17.444 28.448 15.412 29.04 14.036 30.224C12.66 31.376 11.972 33.12 11.972 35.456V37.52H25.796V43.76H11.972V56H4.196V35.504C4.196 31.184 5.54 27.824 8.228 25.424C10.948 23.024 14.74 21.824 19.604 21.824C21.524 21.824 23.332 22.032 25.028 22.448C26.724 22.832 28.196 23.408 29.444 24.176L27.044 30.32C25.124 29.072 22.82 28.448 20.132 28.448ZM32.5498 30.176H40.0378V56H32.5498V30.176ZM36.2938 26.576C34.9178 26.576 33.7978 26.176 32.9338 25.376C32.0698 24.576 31.6378 23.584 31.6378 22.4C31.6378 21.216 32.0698 20.224 32.9338 19.424C33.7978 18.624 34.9178 18.224 36.2938 18.224C37.6698 18.224 38.7898 18.608 39.6538 19.376C40.5178 20.144 40.9498 21.104 40.9498 22.256C40.9498 23.504 40.5178 24.544 39.6538 25.376C38.7898 26.176 37.6698 26.576 36.2938 26.576ZM62.6833 29.792C65.8833 29.792 68.4593 30.752 70.4113 32.672C72.3953 34.592 73.3873 37.44 73.3873 41.216V56H65.8993V42.368C65.8993 40.32 65.4513 38.8 64.5553 37.808C63.6593 36.784 62.3633 36.272 60.6673 36.272C58.7793 36.272 57.2753 36.864 56.1553 38.048C55.0353 39.2 54.4753 40.928 54.4753 43.232V56H46.9873V30.176H54.1393V33.2C55.1313 32.112 56.3633 31.28 57.8353 30.704C59.3073 30.096 60.9233 29.792 62.6833 29.792ZM95.8708 29.792C99.0708 29.792 101.647 30.752 103.599 32.672C105.583 34.592 106.575 37.44 106.575 41.216V56H99.0868V42.368C99.0868 40.32 98.6388 38.8 97.7428 37.808C96.8468 36.784 95.5508 36.272 93.8548 36.272C91.9668 36.272 90.4628 36.864 89.3428 38.048C88.2228 39.2 87.6628 40.928 87.6628 43.232V56H80.1748V30.176H87.3268V33.2C88.3188 32.112 89.5508 31.28 91.0228 30.704C92.4948 30.096 94.1108 29.792 95.8708 29.792ZM125.932 56.384C123.212 56.384 120.764 55.824 118.588 54.704C116.444 53.552 114.764 51.968 113.548 49.952C112.332 47.936 111.724 45.648 111.724 43.088C111.724 40.528 112.332 38.24 113.548 36.224C114.764 34.208 116.444 32.64 118.588 31.52C120.764 30.368 123.212 29.792 125.932 29.792C128.652 29.792 131.084 30.368 133.228 31.52C135.372 32.64 137.052 34.208 138.268 36.224C139.484 38.24 140.092 40.528 140.092 43.088C140.092 45.648 139.484 47.936 138.268 49.952C137.052 51.968 135.372 53.552 133.228 54.704C131.084 55.824 128.652 56.384 125.932 56.384ZM125.932 50.24C127.852 50.24 129.42 49.6 130.636 48.32C131.884 47.008 132.508 45.264 132.508 43.088C132.508 40.912 131.884 39.184 130.636 37.904C129.42 36.592 127.852 35.936 125.932 35.936C124.012 35.936 122.428 36.592 121.18 37.904C119.932 39.184 119.308 40.912 119.308 43.088C119.308 45.264 119.932 47.008 121.18 48.32C122.428 49.6 124.012 50.24 125.932 50.24ZM170.026 30.176L159.13 56H151.402L140.553 30.176H148.282L155.434 47.744L162.826 30.176H170.026ZM198.586 30.176V56H191.434V53.024C189.578 55.264 186.89 56.384 183.37 56.384C180.938 56.384 178.73 55.84 176.746 54.752C174.794 53.664 173.258 52.112 172.138 50.096C171.018 48.08 170.458 45.744 170.458 43.088C170.458 40.432 171.018 38.096 172.138 36.08C173.258 34.064 174.794 32.512 176.746 31.424C178.73 30.336 180.938 29.792 183.37 29.792C186.666 29.792 189.242 30.832 191.098 32.912V30.176H198.586ZM184.666 50.24C186.554 50.24 188.122 49.6 189.37 48.32C190.618 47.008 191.242 45.264 191.242 43.088C191.242 40.912 190.618 39.184 189.37 37.904C188.122 36.592 186.554 35.936 184.666 35.936C182.746 35.936 181.162 36.592 179.914 37.904C178.666 39.184 178.042 40.912 178.042 43.088C178.042 45.264 178.666 47.008 179.914 48.32C181.162 49.6 182.746 50.24 184.666 50.24Z" fill="#14AE5C"/>
</svg>
