<svg width="135" height="51" viewBox="0 0 135 51" fill="none" xmlns="http://www.w3.org/2000/svg">
<path d="M13.088 18.632C11.296 18.632 9.94133 19.0267 9.024 19.816C8.10667 20.584 7.648 21.7467 7.648 23.304V24.68H16.864V28.84H7.648V37H2.464V23.336C2.464 20.456 3.36 18.216 5.152 16.616C6.96533 15.016 9.49333 14.216 12.736 14.216C14.016 14.216 15.2213 14.3547 16.352 14.632C17.4827 14.888 18.464 15.272 19.296 15.784L17.696 19.88C16.416 19.048 14.88 18.632 13.088 18.632ZM21.3665 19.784H26.3585V37H21.3665V19.784ZM23.8625 17.384C22.9452 17.384 22.1985 17.1173 21.6225 16.584C21.0465 16.0507 20.7585 15.3893 20.7585 14.6C20.7585 13.8107 21.0465 13.1493 21.6225 12.616C22.1985 12.0827 22.9452 11.816 23.8625 11.816C24.7798 11.816 25.5265 12.072 26.1025 12.584C26.6785 13.096 26.9665 13.736 26.9665 14.504C26.9665 15.336 26.6785 16.0293 26.1025 16.584C25.5265 17.1173 24.7798 17.384 23.8625 17.384ZM41.4555 19.528C43.5888 19.528 45.3062 20.168 46.6075 21.448C47.9302 22.728 48.5915 24.6267 48.5915 27.144V37H43.5995V27.912C43.5995 26.5467 43.3008 25.5333 42.7035 24.872C42.1062 24.1893 41.2422 23.848 40.1115 23.848C38.8528 23.848 37.8502 24.2427 37.1035 25.032C36.3568 25.8 35.9835 26.952 35.9835 28.488V37H30.9915V19.784H35.7595V21.8C36.4208 21.0747 37.2422 20.52 38.2235 20.136C39.2048 19.7307 40.2822 19.528 41.4555 19.528ZM63.5805 19.528C65.7138 19.528 67.4312 20.168 68.7325 21.448C70.0552 22.728 70.7165 24.6267 70.7165 27.144V37H65.7245V27.912C65.7245 26.5467 65.4258 25.5333 64.8285 24.872C64.2312 24.1893 63.3672 23.848 62.2365 23.848C60.9778 23.848 59.9752 24.2427 59.2285 25.032C58.4818 25.8 58.1085 26.952 58.1085 28.488V37H53.1165V19.784H57.8845V21.8C58.5458 21.0747 59.3672 20.52 60.3485 20.136C61.3298 19.7307 62.4072 19.528 63.5805 19.528ZM83.621 37.256C81.8077 37.256 80.1757 36.8827 78.725 36.136C77.2957 35.368 76.1757 34.312 75.365 32.968C74.5543 31.624 74.149 30.0987 74.149 28.392C74.149 26.6853 74.5543 25.16 75.365 23.816C76.1757 22.472 77.2957 21.4267 78.725 20.68C80.1757 19.912 81.8077 19.528 83.621 19.528C85.4343 19.528 87.0557 19.912 88.485 20.68C89.9143 21.4267 91.0343 22.472 91.845 23.816C92.6557 25.16 93.061 26.6853 93.061 28.392C93.061 30.0987 92.6557 31.624 91.845 32.968C91.0343 34.312 89.9143 35.368 88.485 36.136C87.0557 36.8827 85.4343 37.256 83.621 37.256ZM83.621 33.16C84.901 33.16 85.9463 32.7333 86.757 31.88C87.589 31.0053 88.005 29.8427 88.005 28.392C88.005 26.9413 87.589 25.7893 86.757 24.936C85.9463 24.0613 84.901 23.624 83.621 23.624C82.341 23.624 81.285 24.0613 80.453 24.936C79.621 25.7893 79.205 26.9413 79.205 28.392C79.205 29.8427 79.621 31.0053 80.453 31.88C81.285 32.7333 82.341 33.16 83.621 33.16ZM113.017 19.784L105.753 37H100.601L93.369 19.784H98.521L103.289 31.496L108.217 19.784H113.017ZM132.057 19.784V37H127.289V35.016C126.052 36.5093 124.26 37.256 121.913 37.256C120.292 37.256 118.82 36.8933 117.497 36.168C116.196 35.4427 115.172 34.408 114.425 33.064C113.679 31.72 113.305 30.1627 113.305 28.392C113.305 26.6213 113.679 25.064 114.425 23.72C115.172 22.376 116.196 21.3413 117.497 20.616C118.82 19.8907 120.292 19.528 121.913 19.528C124.111 19.528 125.828 20.2213 127.065 21.608V19.784H132.057ZM122.777 33.16C124.036 33.16 125.081 32.7333 125.913 31.88C126.745 31.0053 127.161 29.8427 127.161 28.392C127.161 26.9413 126.745 25.7893 125.913 24.936C125.081 24.0613 124.036 23.624 122.777 23.624C121.497 23.624 120.441 24.0613 119.609 24.936C118.777 25.7893 118.361 26.9413 118.361 28.392C118.361 29.8427 118.777 31.0053 119.609 31.88C120.441 32.7333 121.497 33.16 122.777 33.16Z" fill="white"/>
</svg>
