<svg width="23" height="22" viewBox="0 0 23 22" fill="none" xmlns="http://www.w3.org/2000/svg">
<path fill-rule="evenodd" clip-rule="evenodd" d="M11.5 3.4375C7.32335 3.4375 3.9375 6.82335 3.9375 11C3.9375 15.1767 7.32335 18.5625 11.5 18.5625C15.6767 18.5625 19.0625 15.1767 19.0625 11C19.0625 6.82335 15.6767 3.4375 11.5 3.4375ZM2.5625 11C2.5625 6.06396 6.56396 2.0625 11.5 2.0625C16.436 2.0625 20.4375 6.06396 20.4375 11C20.4375 15.936 16.436 19.9375 11.5 19.9375C6.56396 19.9375 2.5625 15.936 2.5625 11Z" fill="#F75A68"/>
<path fill-rule="evenodd" clip-rule="evenodd" d="M8.10078 11.038C8.36926 10.7695 8.80456 10.7695 9.07305 11.038L11.5002 13.4652L13.9273 11.038C14.1958 10.7695 14.6311 10.7695 14.8996 11.038C15.1681 11.3065 15.1681 11.7418 14.8996 12.0103L11.9863 14.9236C11.7178 15.1921 11.2825 15.1921 11.0141 14.9236L8.10078 12.0103C7.83229 11.7418 7.83229 11.3065 8.10078 11.038Z" fill="#F75A68"/>
<path fill-rule="evenodd" clip-rule="evenodd" d="M11.5 6.875C11.8797 6.875 12.1875 7.1828 12.1875 7.5625L12.1875 14.4375C12.1875 14.8172 11.8797 15.125 11.5 15.125C11.1203 15.125 10.8125 14.8172 10.8125 14.4375L10.8125 7.5625C10.8125 7.1828 11.1203 6.875 11.5 6.875Z" fill="#F75A68"/>
</svg>
